<mxfile host="Electron" modified="2024-06-25T18:33:11.105Z" agent="Mozilla/5.0 (Windows NT 10.0; Win64; x64) AppleWebKit/537.36 (KHTML, like Gecko) draw.io/24.5.3 Chrome/124.0.6367.207 Electron/30.0.6 Safari/537.36" etag="2k_sDeF3oX44RS8z0jJB" version="24.5.3" type="device">
  <diagram name="Page-1" id="QqvW__qV0s_ZeggTukDy">
    <mxGraphModel dx="521" dy="303" grid="1" gridSize="10" guides="1" tooltips="1" connect="1" arrows="1" fold="1" page="1" pageScale="1" pageWidth="850" pageHeight="1100" math="0" shadow="0">
      <root>
        <mxCell id="0" />
        <mxCell id="9v4CRt2QclPeVUuelxVh-5" value="Main" parent="0" />
        <mxCell id="gi-Mt8ges2AlkVYHoamv-7" style="rounded=0;orthogonalLoop=1;jettySize=auto;html=1;" parent="9v4CRt2QclPeVUuelxVh-5" source="gi-Mt8ges2AlkVYHoamv-2" target="gi-Mt8ges2AlkVYHoamv-4" edge="1">
          <mxGeometry relative="1" as="geometry" />
        </mxCell>
        <mxCell id="hD5wZgxYILh6kKBeQBLH-1" style="edgeStyle=orthogonalEdgeStyle;rounded=0;orthogonalLoop=1;jettySize=auto;html=1;elbow=vertical;curved=1;dashed=1;" parent="9v4CRt2QclPeVUuelxVh-5" source="gi-Mt8ges2AlkVYHoamv-2" target="gi-Mt8ges2AlkVYHoamv-3" edge="1">
          <mxGeometry relative="1" as="geometry">
            <Array as="points">
              <mxPoint x="295" y="500" />
              <mxPoint x="535" y="500" />
            </Array>
          </mxGeometry>
        </mxCell>
        <mxCell id="gi-Mt8ges2AlkVYHoamv-2" value="PDF" style="ellipse;whiteSpace=wrap;html=1;aspect=fixed;" parent="9v4CRt2QclPeVUuelxVh-5" vertex="1">
          <mxGeometry x="270" y="530" width="50" height="50" as="geometry" />
        </mxCell>
        <mxCell id="gi-Mt8ges2AlkVYHoamv-3" value="HTML" style="ellipse;whiteSpace=wrap;html=1;aspect=fixed;" parent="9v4CRt2QclPeVUuelxVh-5" vertex="1">
          <mxGeometry x="510" y="530" width="50" height="50" as="geometry" />
        </mxCell>
        <mxCell id="gi-Mt8ges2AlkVYHoamv-9" style="rounded=0;orthogonalLoop=1;jettySize=auto;html=1;" parent="9v4CRt2QclPeVUuelxVh-5" source="gi-Mt8ges2AlkVYHoamv-4" target="gi-Mt8ges2AlkVYHoamv-3" edge="1">
          <mxGeometry relative="1" as="geometry" />
        </mxCell>
        <mxCell id="gi-Mt8ges2AlkVYHoamv-4" value="DOCX" style="ellipse;whiteSpace=wrap;html=1;aspect=fixed;" parent="9v4CRt2QclPeVUuelxVh-5" vertex="1">
          <mxGeometry x="390" y="530" width="50" height="50" as="geometry" />
        </mxCell>
        <mxCell id="gi-Mt8ges2AlkVYHoamv-8" style="rounded=0;orthogonalLoop=1;jettySize=auto;html=1;strokeColor=#000000;" parent="9v4CRt2QclPeVUuelxVh-5" source="gi-Mt8ges2AlkVYHoamv-5" target="gi-Mt8ges2AlkVYHoamv-2" edge="1">
          <mxGeometry relative="1" as="geometry" />
        </mxCell>
        <mxCell id="hD5wZgxYILh6kKBeQBLH-2" style="edgeStyle=orthogonalEdgeStyle;curved=1;rounded=0;orthogonalLoop=1;jettySize=auto;html=1;dashed=1;" parent="9v4CRt2QclPeVUuelxVh-5" source="gi-Mt8ges2AlkVYHoamv-5" target="gi-Mt8ges2AlkVYHoamv-3" edge="1">
          <mxGeometry relative="1" as="geometry">
            <Array as="points">
              <mxPoint x="175" y="490" />
              <mxPoint x="535" y="490" />
            </Array>
          </mxGeometry>
        </mxCell>
        <mxCell id="gi-Mt8ges2AlkVYHoamv-5" value="PPTX" style="ellipse;whiteSpace=wrap;html=1;aspect=fixed;" parent="9v4CRt2QclPeVUuelxVh-5" vertex="1">
          <mxGeometry x="150" y="530" width="50" height="50" as="geometry" />
        </mxCell>
      </root>
    </mxGraphModel>
  </diagram>
</mxfile>
